<svg xmlns="http://www.w3.org/2000/svg" xmlns:xlink="http://www.w3.org/1999/xlink" width="1280" height="197" viewBox="0 0 1280 197">
  <defs>
    <filter id="多角形_3">
      <feOffset dy="3" input="SourceAlpha"/>
      <feGaussianBlur stdDeviation="3" result="blur"/>
      <feFlood flood-opacity="0.161" result="color"/>
      <feComposite operator="out" in="SourceGraphic" in2="blur"/>
      <feComposite operator="in" in="color"/>
      <feComposite operator="in" in2="SourceGraphic"/>
    </filter>
    <filter id="合体_1" x="591.5" y="0" width="97" height="133" filterUnits="userSpaceOnUse">
      <feOffset dy="3" input="SourceAlpha"/>
      <feGaussianBlur stdDeviation="3" result="blur-2"/>
      <feFlood flood-opacity="0.161"/>
      <feComposite operator="in" in2="blur-2"/>
      <feComposite in="SourceGraphic"/>
    </filter>
  </defs>
  <g id="扉" transform="translate(147 -948)">
    <g data-type="innerShadowGroup">
      <path id="多角形_3-2" data-name="多角形 3" d="M640,0l640,81H0Z" transform="translate(-147 1064)" fill="#fff"/>
      <g transform="matrix(1, 0, 0, 1, -147, 948)" filter="url(#多角形_3)">
        <path id="多角形_3-3" data-name="多角形 3" d="M640,0l640,81H0Z" transform="translate(0 116)" fill="#fff"/>
      </g>
    </g>
    <g id="グループ_32" data-name="グループ 32" transform="translate(305.5 -12)">
      <g transform="matrix(1, 0, 0, 1, -452.5, 960)" filter="url(#合体_1)">
        <path id="合体_1-2" data-name="合体 1" d="M0,115V35.819H.177a39.494,39.494,0,0,1,78.646,0H79V115Z" transform="translate(600.5 6)" fill="#151841"/>
      </g>
      <path id="合体_2" data-name="合体 2" d="M0,13,2.871,8.223A4.372,4.372,0,0,1,.555,4.42,4.579,4.579,0,0,1,5.278,0,4.578,4.578,0,0,1,10,4.42,4.415,4.415,0,0,1,7.256,8.434L10,13Z" transform="translate(156 1016)" fill="#fff"/>
    </g>
  </g>
</svg>
